<svg version="1.1" viewBox="0.0 0.0 960.0 720.0" fill="none" stroke="none" stroke-linecap="square" stroke-miterlimit="10" xmlns:xlink="http://www.w3.org/1999/xlink" xmlns="http://www.w3.org/2000/svg"><clipPath id="p.0"><path d="m0 0l960.0 0l0 720.0l-960.0 0l0 -720.0z" clip-rule="nonzero"/></clipPath><g clip-path="url(#p.0)"><path fill="#000000" fill-opacity="0.0" d="m0 0l960.0 0l0 720.0l-960.0 0z" fill-rule="evenodd"/><path fill="#1155cc" d="m551.5014 290.12335l0 225.54333l-277.0709 -225.54333z" fill-rule="evenodd"/><path fill="#073763" d="m185.23439 54.306744l0 0c0.28364563 -7.415802 6.523987 -13.1661 13.938202 -12.843651l302.66254 13.163017c3.5604553 0.15484619 6.920929 1.7180252 9.342224 4.345665c2.4213257 2.627636 3.705017 6.1044807 3.5688477 9.665676l-0.92559814 24.200127c-0.28363037 7.415802 -6.5240173 13.1661 -13.938232 12.843651l-302.66254 -13.163017c-7.414215 -0.32244873 -13.194687 -6.595543 -12.911041 -14.011345z" fill-rule="evenodd"/><path fill="#073763" d="m484.22052 61.326797l0 0c14.011505 -2.90493 27.527252 6.1379395 30.188232 20.197807l86.9621 459.4784c1.277832 6.751831 -0.16955566 13.781189 -4.0237427 19.54187c-3.854248 5.76062 -9.799622 9.78064 -16.528198 11.175659l0 0l0 0c-14.011475 2.9049072 -27.527222 -6.1379395 -30.188232 -20.197815l-86.96207 -459.47842c-2.6610107 -14.059868 6.5404053 -27.812561 20.55191 -30.717491z" fill-rule="evenodd"/><path fill="#073763" d="m207.4446 258.65067l0 0c6.8370514 -9.984467 20.106201 -12.034348 29.637497 -4.5785217l355.4369 278.03943c4.5770874 3.5804443 7.6624146 8.918884 8.577332 14.841003c0.91485596 5.922119 -0.41571045 11.942749 -3.6989746 16.737488l-5.8235474 8.504395l0 0c-6.837036 9.984497 -20.106201 12.034363 -29.637512 4.5785522l-355.43686 -278.03943c-9.531296 -7.455841 -11.715424 -21.593994 -4.878372 -31.578491z" fill-rule="evenodd"/><path fill="#073763" d="m196.4014 263.02994l0 0c0 -11.619919 9.4198 -21.045654 21.039719 -21.052963l608.40875 -0.3829651c5.580078 -0.0035095215 10.931641 2.209793 14.877319 6.1530304c3.9457397 3.9432373 6.1624146 9.2933655 6.1624146 14.873444l0 13.259125l0 0c0 11.619934 -9.4198 21.045685 -21.039734 21.052979l-608.40875 0.3829651l0 0c-11.619919 0.0073242188 -21.039719 -9.406555 -21.039719 -21.02649z" fill-rule="evenodd"/></g></svg>